/* XPM */
static char *result[] = {
/* columns rows colors chars-per-pixel */
"64 64 233 2 ",
"   c #0E0F0E",
".  c #100F0F",
"X  c #0F100F",
"o  c #11100F",
"O  c #141212",
"+  c #1B1515",
"@  c #1C1811",
"#  c #1D1C1B",
"$  c #1B1818",
"%  c #221B14",
"&  c #211718",
"*  c #241A1B",
"=  c #2B1C1E",
"-  c #221817",
";  c #2A2416",
":  c #29221A",
">  c #3A2C1B",
",  c #342919",
"<  c #3D321A",
"1  c #2D1E20",
"2  c #311F22",
"3  c #242323",
"4  c #2B2324",
"5  c #2D2A2A",
"6  c #2C2826",
"7  c #322124",
"8  c #352629",
"9  c #342C2D",
"0  c #3A2A2D",
"q  c #392728",
"w  c #383429",
"e  c #3C2E31",
"r  c #352F30",
"t  c #343233",
"y  c #3C3334",
"u  c #353639",
"i  c #363839",
"p  c #3D3B3A",
"a  c #3E3C37",
"s  c #2F3031",
"d  c #43351C",
"f  c #4A3B1D",
"g  c #452D27",
"h  c #483625",
"j  c #533A25",
"k  c #413436",
"l  c #433638",
"z  c #453B3C",
"x  c #493D3C",
"c  c #503B31",
"v  c #623F2A",
"b  c #584524",
"n  c #48423C",
"m  c #544836",
"M  c #524A2A",
"N  c #664829",
"B  c #724A2A",
"V  c #6A5629",
"C  c #775D2C",
"Z  c #744C32",
"A  c #7B5534",
"S  c #674C35",
"D  c #79652C",
"F  c #766D2C",
"G  c #4A3F40",
"H  c #433D41",
"J  c #613E72",
"K  c #4C4243",
"L  c #4A4747",
"P  c #514446",
"I  c #524748",
"U  c #544B4C",
"Y  c #594C4E",
"T  c #534A45",
"R  c #594F50",
"E  c #565353",
"W  c #5C5354",
"Q  c #5E595B",
"!  c #5B524B",
"~  c #645B5C",
"^  c #645858",
"/  c #64534D",
"(  c #75675D",
")  c #76624E",
"_  c #685B62",
"`  c #785E7F",
"'  c #656162",
"]  c #6B6364",
"[  c #6C6869",
"{  c #746B6D",
"}  c #74696A",
"|  c #766E70",
" . c #7A6E78",
".. c #7B7273",
"X. c #7A7477",
"o. c #79746A",
"O. c #865933",
"+. c #935E34",
"@. c #897928",
"#. c #976337",
"$. c #8A6A2E",
"%. c #A96C3C",
"&. c #B0713D",
"*. c #866549",
"=. c #9C6C44",
"-. c #927456",
";. c #B97845",
":. c #A17C5B",
">. c #84797A",
",. c #917765",
"<. c #C47A42",
"1. c #C57D47",
"2. c #AA9321",
"3. c #9F8A24",
"4. c #CBAD1B",
"5. c #A6815E",
"6. c #BC8356",
"7. c #928473",
"8. c #B88A63",
"9. c #AE9076",
"0. c #CA8C5B",
"q. c #CE8B57",
"w. c #CA976C",
"e. c #DBA779",
"r. c #754F8E",
"t. c #7C49A4",
"y. c #897D81",
"u. c #8C6F93",
"i. c #824DA6",
"p. c #868283",
"a. c #8B8585",
"s. c #8D8A8A",
"d. c #968889",
"f. c #998C95",
"g. c #9B9496",
"h. c #948A89",
"j. c #A79A8A",
"k. c #A79898",
"l. c #B79D91",
"z. c #B7AB98",
"x. c #AC9BA6",
"c. c #AC9DBB",
"v. c #AF91AC",
"b. c #ABA6A7",
"n. c #B7A7A9",
"m. c #B8B1A9",
"M. c #ABA1B8",
"N. c #B3A5BE",
"B. c #BAAABD",
"V. c #BCB4B4",
"C. c #BCB8B8",
"Z. c #D9B999",
"A. c #D0B08F",
"S. c #E2B991",
"D. c #C8BAA6",
"F. c #C2ADB7",
"G. c #C4BABA",
"H. c #CBBCBC",
"J. c #C7B4B6",
"K. c #D6B8BB",
"L. c #CDB6A8",
"P. c #E8C29C",
"I. c #D7C3A9",
"U. c #D9CBB3",
"Y. c #CAC0AC",
"T. c #EACAA8",
"R. c #E7D5B9",
"E. c #F5DBB9",
"W. c #E0C5B0",
"Q. c #FBE2BF",
"!. c #BCACC3",
"~. c #B5A7C0",
"^. c #BDB9CC",
"/. c #B7B4C9",
"(. c #AEB1CC",
"). c #C5AFC3",
"_. c #C3B1C3",
"`. c #CAB5C4",
"'. c #C8BBCA",
"]. c #D3BAC4",
"[. c #DBBDC5",
"{. c #DCBEC9",
"}. c #D2B8C7",
"|. c #E2BEC8",
" X c #CBC5C7",
".X c #DCC4C6",
"XX c #D3C1CE",
"oX c #DDC2CB",
"OX c #D8C9C9",
"+X c #D8C4D2",
"@X c #DBD4D3",
"#X c #D4D1CF",
"$X c #E3C3CB",
"%X c #ECC5CB",
"&X c #EDCACD",
"*X c #E4C5C8",
"=X c #F4CBCD",
"-X c #F4CACB",
";X c #F6D6C9",
":X c #EDCAD0",
">X c #E3CAD4",
",X c #F4CDD1",
"<X c #F8CFD0",
"1X c #ECD2D5",
"2X c #E8DAD9",
"3X c #F5D3D4",
"4X c #FBD4D4",
"5X c #FCD8D6",
"6X c #F5DCDC",
"7X c #FBDBDB",
"8X c #F6D7D9",
"9X c #EDDDC1",
"0X c #FEE5C3",
"qX c #F9E5C5",
"wX c #FBE1DE",
"eX c #F4E0DE",
"rX c #F2DCE1",
"tX c #EEE7E6",
"yX c #F4E4E3",
"uX c #FAE4E2",
"iX c #FAE9E6",
"pX c #F4EBEB",
"aX c #FAECEA",
"sX c #F8E8E6",
"dX c #FBF1EE",
"fX c #F4F0EF",
"gX c #F7F3F2",
"hX c #FCF5F3",
"jX c #FCF9F6",
"kX c #FCFAFA",
"lX c #FCF7F8",
"zX c #FBEFF1",
"xX c None",
/* pixels */
"xXxXxXxXxXxXxXxXxXxXxXxXxXxXxXxXxXxXxXxXxXxXxXxXxXxXxXxXdXaXaXkXkXaXsXdXxXxXxXxXxXxXxXxXxXxXxXxXxXxXxXxXxXxXxXxXxXxXxXxXxXxXxXxX",
"xXxXxXxXxXxXxXxXxXxXxXxXxXxXxXxXxXxXxXxXxXxXxXhXgXuXuXiXiXhXaXaXhXpX6XaXaXaXiXuX7XxXxXxXxXxXxXxXxXxXxXxXxXxXxXxXxXxXxXxXxXxXxXxX",
"xXxXxXxXxXxXxXxXxXxXxXxXxXxXxXxXxXxXxXxX'.+X1XrXaXpX5X7XuXgXsXyXyX.X]..X2XfXgXaXsXwX7X7XxXxXxXxXxXxXxXxXxXxXxXxXxXxXxXxXxXxXxXxX",
"xXxXxXxXxXxXxXxXxXxXxXxXxXxXxXxXxXxXXX'.+X'.+X>XrX@XG.V.g.y.] ^ ~ U T L U P ^ [ h.b.H.*XwX5XxXxXxXxXxXxXxXxXxXxXxXxXxXxXxXxXxXxX",
"xXxXxXxXxXxXxXxXxXxXxXxXxXxXxXxX>X{.+X+X+X>Xx. .R P x 1 1 2 2 2 2 2 2 2 1 2 2 2 2 = 0 W | n..XuXxXxXxXxXxXxXxXxXxXxXxXxXxXxXxXxX",
"xXxXxXxXxXxXxXxXxXxXxXxXxXxXXX>X>X1XrXF.} q 7 1 l k 7 2 2 0 k 8 l e 2 0 e 2 2 2 2 7 2 7 7 = Y a.2XaXxXxXxXxXxXxXxXxXxXxXxXxXxXxX",
"xXxXxXxXxXxXxXxXxXxXxXxXxX^.^.'.>XF.^ 1 2 = y p 1 2 * e G 9 G x x z k 8 2 l H 0 2 7 2 2 7 2 2 I y.tXhXxXxXxXxXxXxXxXxXxXxXxXxXxX",
"xXxXxXxXxXxXxXxXxXxXxXxX/.^.^.'.g.2 1 = 1 P 1 = $ 1 U 5 9 | W P 2 2 Y W Y 0 2 2 2 2 7 7 8 2 2 2 R g.sXsXxXxXxXxXxXxXxXxXxXxXxXxX",
"xXxXxXxXxXxXxXxXxXxXxX^.(.^.^.f.2 = - 9 K o $ X K z O W k.U * 1 _ ] e 2 2 = & 7 l 7 7 0 x 2 2 2 2 _ V.uXiXxXxXxXxXxXxXxXxXxXxXxX",
"xXxXxXxXxXxXxXxXxXxX X(./.^.s.4 = O l 6   O + W 4 . | { * O ' ] = = & O . k I k 2 2 0 E 2 * 2 2 8 1 a.#XhXdXxXxXxXxXxXxXxXxXxXxX",
"xXxXxXxXxXxXxXxXxX^./.(.(._ 1 $ O p 3 X   6 U $   _ y X L | 4 & + X O e K 0 7 8 0 e I 2 $ * 8 2 2 2 8 b.wXdXhXxXxXxXxXxXxXxXxXxX",
"xXxXxXxXxXxXxXxX^././.M.H + + . 9 # X X t x $   p # O [ L O O X X * W y q k z 0 k k = & . 8 l 2 2 2 2 U Y.wXaXhXxXxXxXxXxXxXxXxX",
"xXxXxXxXxXxXxX^. X^.r.L # + . 1 #     y l - X $ O # X.4       . z [ 8 z U z = k = & $   1 U 8 7 2 2 2 2 >.2XdXhXhXxXxXxXxXxXxXxX",
"xXxXxXxXxXxX+XB.X.' b.H + . . 1     y 9 =   o o 3 { O X     . ^ ~ G Q U = * 8 . & +   O l ^ e 8 2 2 8 2 0 V.uXuXaXhXxXxXxXxXxXxX",
"xXxXxXxXxXn.f.g. X/.u 1 O . &     t 6 =     X 3 ' o X X   O } ] _ U 8 + = $   $ .   X y Q e k 1 2 2 2 2 7 } .X7XuXsXxXxXxXxXxXxX",
"xXxXxXxXxX+X+X{.V.s | 4 # O X   6 9 * O     # ~ o X X X O ..p._ e + $ $     .   X + 4 G W k K & 2 1 8 2 7 q b.3X3XwX,XxXxXxXxXxX",
"xXxXxXxXkXfXyXb.y b.^ H O O X # y O & X   X _ O       O >.f.z & . O     .       & $ L ^ k = I $ 2 2 G 2 2 8 _ *X3X3X%X&XxXxXxXxX",
"xXxXxXxXkXkXs._ '.k.3 '   X O y   *       U $     X O ..>.= O   . . O $ .     = & R G r G & I & 2 2 U 2 2 1 R b.8X:X%X%XxXxXxXxX",
"xXxXxXjX Xp.#XrX+Xs f.O     i X . + X X 5 9   X   . ~ W +       o & O     . = & Y e K H 1 l 1 1 1 2 Y k 8 1 I [ :X%X%X%X%XxXxXxX",
"xXxXxX X2XkXlX2Xh.E p.    5 $ X $ X   X L         x z .       - = .     . = & Y k U * G $ U + 2 * 1 I l k 1 I U [.%X%X%X%XxXxXxX",
"xXxXpXgXkXgXkXgXt @X5 X O 4   X +   X y O   X   9 9     . O = @       . 8 = U e G & H * 5 y + 2 + k e l Y 1 [ P x.%X$X$X%X$XxXxX",
"xXxXkXkXkXtXzXm.| G.X X 4 .   o     $ 9       $ =       - 1 o       O 0 8 R k z 1 9 1 + K + & & * G e I l 1 ^ I d.$X$X$X$X$XxXxX",
"xXxXkXkXkXfXzX' 2X>.  O +           r .     O $     . = - . @ X     9 8 R 0 z 7 * 4 & 9 8 + & O 1 G G G G 1 z Y >.%X$X$X$X{.xXxX",
"xXhXkXkXkXhXpX[ uXE   -       X   X 6       +     @ = $   > @ @ ; 9 k U 2 k 7 # = * O x O - =   1 l G P I 1 G l f.|.|.oX$X$X*XxX",
"xXuXaXhXjXyXG.G.aXu + o           # O     .   o h , O O j % % j 9 G U 2 8 2 + 4 & > e b 4 O *   G & R z Y = G 1 x.|.oX1X$X$X*XxX",
"xX7XaXsXjXyXV.aXjX3 & X           &         * O.= o j #., - O.= _ W 2 2 2 + & & A 1 Z S = O $ O z * | 0 K 2 G = n.$X&XyX2X:X$XxX",
"xXuXaXwXaXwXOXuXfX: ~ #           $       d O.* @ +.&.j - &.; f.~ 1 7 S q * & O.N h l.N g $   & 8 L P y p 2 P * F.$X5XwX3X$XoXxX",
"xXiXhXwXwXwX>XwXpX=  Xt         $ O     > #.$ , O.&.O.% &.j d._ 2 g =.> / 2 O.+.h P.7.Z N $   * . y.& R 4 8 k l F.*X8X*XoX$X{.xX",
"4XyXhX7X7X7X7XuXOX* eXE X 6     &     , j - d ;.%.V & O.O.] ~ 2 Z &.> *.k #.8.g P.qXg.N Z O   $ p K y G + = = _ C.pXjXtXoXXXoX:X",
"4XaXsX5X5X7X7X7Xd.# eXf.X [     +   . j , h.| , *.m b O.x ] q O.O.; *.c 6.Z.T I.0XqXm.A B O O X I O K t * & 1 g.b.jXdXjXpX{.oX{.",
"wXdXgX6XiXzXuX7XU ] &Xk.X p.s   -     - k._.n.4 5 h 6.b ~ j <.O.O.Z A %.#.e =.5.5.7.z./ b o X 1 $ z l $ O 1 s  Xb.jXkXjXjXpXtX>X",
"hXhXhXuX7X7X<X&XL K.F.l.X ..o.o O .   j 8.b.E K * B %.n N 1.+.:.S %.<.#.h ;.A.A.8.-.R.j.B .   + 6 l 6 $ + * W Y.C.jXjXkXkXjXsXpX",
"hXhXzX4X,X-X%XL.{ 3XJ.K.X _ a.  O X O h <.j.n ] Q I h A &.9.,.-.T.1.#.+.6.U.Y.U.R.m.R.D.A X . # x 8 O . $ K >.J.#XwXiXiXzXhXhXhX",
"aXzXwX-X-X%X-Xk.k.,X<X4X$ y.z.  X X X < w.9XT.D.A.9.N q.%.,.T.0XI.:.6.6.j.p.E t r 5 n ' ) X # K 2 $ . o 4 h.k.V.yX6X7X7XaXiXiXhX",
"7X7X4X|.|.-X-X>.F.-X<X<XE J.OX      X @ P.Q.Q.I.qX} 0.;.&.qX0X0X;X0XqXz.o.K >.r q e } [ :.3 a = * X . 0 e 2XJ.b.hXhXhXpX8XwX7X7X",
"<X<X-X%X-X|.-Xd.L.-X<X%Xk.n.4Xu     X X w.Q.0XE.R.9.0X0.%.qX0X0X0XR.D.D.J.g.>.~ >.z n.R./ 6 = 8 ! X X | } 6X&Xd.7XuXzXlXdXsXsXxX",
"xX-X=X$X%X%X-Xk.n.<X<X4X8Xk.uXs.      ; n 0X0X0XU.T.qX0.#.qX0X0X0X0X0X0XqXD.h.o.^ d.L.x & 2 2 ,.* X [ ^ ].%X,Xx.4X7XsXjXdXdXjXxX",
"xX-X%X$X%X%X-X[.d.<X5X5X7XH.aX2X      > O.z.0X0XE.E.0X<.5.0X0X0X0X0X0X0X0X0XQ.Q.D.} m $ 2 2 >.H X t J. .$X:XyX@X:X3XaXjXjXwXdXxX",
"xX%X%X%X%X%X%X=Xg.4X4X4X7X6XyXfXO X     #.Z.0X0X0XqXT.1.9.qX0X0X0XQ.0X0X0XU.j.*.:./ 1 1 g  .0 & O { [ {.&XrXhXhX6X3XsXuXsXdXhXxX",
"xX%X%X%X%X%X=X-XK.-X<X4X4X7XhX X3 L     @ 1.Q.0X0XqXS.+.U.0X0XQ.0X0XQ.E.D.Z.W.7.0 1 1 8 W + 2 8 p._ d.,X3X7X7XaXjX6X3X3XwXdXiXxX",
"xX%X%X%X-X=X=X=X<X&X-X=X4X7XgXL s.#X      d e.qX0X0X0X%.qX0X0X0X0XqX9XD.j.^ 8 2 2 1 O   + 2 2 |.d.i.u.*X4X,X,X6XsX=X,X7XhXhXaXxX",
"xXxX%X%X%X:X=X,X<X-X-X<X3XuXs.#XtXb.X X   X B T.0X0X0XA.9X0X0X0XE.A.9.-.:.*.M g O.% . & 2 = G |.v.i.r.i.|.|.:X=X1X,X,X5XsXjXxXxX",
"xXxX1X3X:X:X=X=X<X<X<X<X=XG.tXjXkXL   #     X =.Q.Q.R.D.R.Q.Q.0X0XqX9Xk.( B 6.Z.( O = 2 2 2 Y v.f.` i.r.|.$X%X%X=X,X:X3XwXaXxXxX",
"xXxXhXhXhXyX,X,X<X-X-X-X3X7XaXhXb.# s L     3 7.8.0XQ.I.m.g.R.0X0XR.L.U.T.qXI.:.) & 1 = 2 H J i.r.i.v.v.{.|.$X$X*X:X,X3X5XuXxXxX",
"xXxXxXdXhXiXzXlXgX4X3X<X7X6X6X#Xi E C.#     b.Q % A.0Xq.8.Z.Y.Y.0X0XQ.Q.R.( $.q.7.2 & & 2 y._ ` t.t.`.[.|.|.|.|.$X%X=X5X5XxXxXxX",
"xXxXxX7X4X4X7XhXkXsX<X5XiXiXoX7.s.b.#X    [ kX3 X > T.S.2.<.P.0XR.0XR.o., %.6.9.M g = + 2 ].d.`.u.u.`.|.|.$X%X|.$X-X3X3X3XxXxXxX",
"xXxXxXxX4X<X5XaXhXjX7X4X4X,XOXn.G.iXm.  L jX X  O # N E.P.-XQ.0XI.' O ; $.-.A.7.8 O = X 2 %XJ.].`.`.[.[..X$X%X%X<X<X4X4XxXxXxXxX",
"xXxXxXxX4X4X5XwXdXhX6X5X4X7X*X4XwXtXL ' gXkXX.O Q 6 q ) 0XZ.7.< o < b D b T a 5 9 O + 4 q &X%X`.`.).}.{.$X$X%X%X,X<X5X5XxXxXxXxX",
"xXxXxXxXxX4X5XuXaXaX4X4X5X4X5X4XJ.7.E tXlXfX3 p.E < D < d < f b F M , @ X i s u 3 1 # [ 1 |.}.`.`._.`.].[.*X|.%X%X=X3XxXxXxXxXxX",
"xXxXxXxXxX4X5X7XaX5X4X<X5X4X5X5XwXiXb.gXkXg.' C.-.D D C V D d ;         5 i i i 3 s # y.Y n.}.`.`._.`.}.].[.*X|.$X=XxXxXxXxXxXxX",
"xXxXxXxXxXxXuXaXkXzX3X4X5X5X4X5XwXiX XdXgX| tXeX! , + X   b ,       d   i u i s s u 3 y.v. ._._._.!._._.}.].].|.%X-XxXxXxXxXxXxX",
"xXxXxXxXxXxXxXhXhXhX3X4X4X5X7X7XiXiX1XuX#XgXuXG.U f X X   < d   o   b M 4.4.a i u u u f./.f.N.).!.B._.`.}.}.].[.%XxXxXxXxXxXxXxX",
"xXxXxXxXxXxXxXxXzXaX4X4X4X4X5X5X7XuXiXuXaXiX7X.XsXV o o X ; b @ V D < @.@.u m i i i i f.~.~.~.!._./.!._.].$X].[.xXxXxXxXxXxXxXxX",
"xXxXxXxXxXxXxXxXxXuX5X5X4X5X5X4X5X5XwXwXuX7X4X5XwX7.o o X @ V < % , < F 3.u a i i i a r.~.~.!.!.N.N.~._.`.>X{.xXxXxXxXxXxXxXxXxX",
"xXxXxXxXxXxXxXxXxXxX5X5X5X4X4X5X4X4X7X7X7X5X4X4XwXz.;       D % X f d @.2.i i i i i i L ~.~.~.~.N.N.N.~.~.F.xXxXxXxXxXxXxXxXxXxX",
"xXxXxXxXxXxXxXxXxXxXxX5X5X4X5X5X4X7X7X5X7X5X4X4XwXOXd   X   V @ X ; 2.M 3.a i i i i i i f.).N.c.N.M.N.N._.xXxXxXxXxXxXxXxXxXxXxX",
"xXxXxXxXxXxXxXxXxXxXxXxX5X5X7X5X7X7X4X7X5X4X5X5XeXtXf       V ; X O a 4.3.F u u i i i i I _.~.).c.c.N.N.xXxXxXxXxXxXxXxXxXxXxXxX",
"xXxXxXxXxXxXxXxXxXxXxXxXxX4XK.K.5X7X7X7X5X<X3X5X7X7.<       b , o w F F 3.s u u i i i i u Q !.).F.c.c.xXxXxXxXxXxXxXxXxXxXxXxXxX",
"xXxXxXxXxXxXxXxXxXxXxXxXxXxXxXJ.4X4X5X4X<X4XwX7Xz.. f       M , o i i n @.i u u i i i i u i [ !.~.xXxXxXxXxXxXxXxXxXxXxXxXxXxXxX",
"xXxXxXxXxXxXxXxXxXxXxXxXxXxXxXxX5X4X7X3X3X4XuXC.$ X f       f < : i i i u i i i i i i i u i u { xXxXxXxXxXxXxXxXxXxXxXxXxXxXxXxX",
"xXxXxXxXxXxXxXxXxXxXxXxXxXxXxXxXxXxXsXjXdX3Xk.+ X   h X X X d < u i i i i i i i i i i i i i xXxXxXxXxXxXxXxXxXxXxXxXxXxXxXxXxXxX",
"xXxXxXxXxXxXxXxXxXxXxXxXxXxXxXxXxXxXxXxXjXs.$   X   f X X X b , i i i i i i i i i i i i xXxXxXxXxXxXxXxXxXxXxXxXxXxXxXxXxXxXxXxX",
"xXxXxXxXxXxXxXxXxXxXxXxXxXxXxXxXxXxXxXxXxXxXxXX X + <   X X V s i i i i i i s i i xXxXxXxXxXxXxXxXxXxXxXxXxXxXxXxXxXxXxXxXxXxXxX",
"xXxXxXxXxXxXxXxXxXxXxXxXxXxXxXxXxXxXxXxXxXxXxXxXxXxXxXxXX < w u 5 X # xXxXxXxXxXxXxXxXxXxXxXxXxXxXxXxXxXxXxXxXxXxXxXxXxXxXxXxXxX"
};
