/* XPM */
static char *result[] = {
/* columns rows colors chars-per-pixel */
"32 32 197 2 ",
"   c #0E0F0E",
".  c #0F100F",
"X  c #11100F",
"o  c #141212",
"O  c #1A1515",
"+  c #1D1914",
"@  c #1E1B1B",
"#  c #231E14",
"$  c #221719",
"%  c #231B1C",
"&  c #2A1C1E",
"*  c #2B2316",
"=  c #2E221D",
"-  c #322619",
";  c #3B2A1D",
":  c #3B311B",
">  c #2A1F21",
",  c #311F22",
"<  c #262323",
"1  c #2C2324",
"2  c #2D2B2B",
"3  c #272829",
"4  c #332325",
"5  c #352628",
"6  c #332B2C",
"7  c #3A2B2D",
"8  c #3C2F31",
"9  c #343333",
"0  c #3D3334",
"q  c #363839",
"w  c #3B3B3A",
"e  c #3A3738",
"r  c #43341D",
"t  c #46391D",
"y  c #4C3E1E",
"u  c #402D24",
"i  c #493521",
"p  c #443627",
"a  c #5C3F2E",
"s  c #413234",
"d  c #433739",
"f  c #443B3D",
"g  c #493E3F",
"h  c #453E35",
"j  c #573F36",
"k  c #5E5022",
"l  c #4C4435",
"z  c #574639",
"x  c #594723",
"c  c #664628",
"v  c #724B2D",
"b  c #78522D",
"n  c #685738",
"m  c #795739",
"M  c #684F2F",
"N  c #6E642E",
"B  c #73672B",
"V  c #7D702B",
"C  c #4A3F41",
"Z  c #473E40",
"A  c #4C4243",
"S  c #4C4749",
"D  c #474343",
"F  c #544B4D",
"G  c #554A4B",
"H  c #584F50",
"J  c #5A5152",
"K  c #5D5A5B",
"L  c #5F535B",
"P  c #66564D",
"I  c #625659",
"U  c #645356",
"Y  c #755845",
"T  c #706657",
"R  c #5F5A63",
"E  c #705D61",
"W  c #6B6266",
"Q  c #736D6D",
"!  c #726667",
"~  c #7F786E",
"^  c #797275",
"/  c #746C75",
"(  c #835A3C",
")  c #81722A",
"_  c #9F6639",
"`  c #9A6B45",
"'  c #866D56",
"]  c #8B725D",
"[  c #9C7558",
"{  c #A97750",
"}  c #8C7666",
"|  c #87797A",
" . c #B48359",
".. c #8D837A",
"X. c #988A7D",
"o. c #B5916D",
"O. c #A38E75",
"+. c #A8927E",
"@. c #AD8E71",
"#. c #C68F63",
"$. c #CC9A6E",
"%. c #D39D70",
"&. c #CAA17D",
"*. c #7B5B90",
"=. c #7D5889",
"-. c #917B85",
";. c #86609D",
":. c #907992",
">. c #956EA4",
",. c #878685",
"<. c #928686",
"1. c #968C8B",
"2. c #998A92",
"3. c #9B939A",
"4. c #A4988C",
"5. c #A29394",
"6. c #A69A9B",
"7. c #A69B9C",
"8. c #B29B85",
"9. c #B9A289",
"0. c #B7A596",
"q. c #9F91A0",
"w. c #B59EA3",
"e. c #ACA3A3",
"r. c #BBAAAB",
"t. c #B4A6A9",
"y. c #AFA1BC",
"u. c #B1A2BD",
"i. c #B8A6B5",
"p. c #BBB8B7",
"a. c #CFAB86",
"s. c #D2A880",
"d. c #CCB397",
"f. c #E3B78D",
"g. c #C3A8AB",
"h. c #C9B9BB",
"j. c #D3BBBD",
"k. c #D8B8B9",
"l. c #CFC1AC",
"z. c #D4C2AA",
"x. c #DDC7AD",
"c. c #DDC8AC",
"v. c #EACCA9",
"b. c #EBD4B6",
"n. c #E1D0B5",
"m. c #F2DABA",
"M. c #FAE1BF",
"N. c #B4ABC2",
"B. c #BDACC1",
"V. c #B6A6C0",
"C. c #B9B6CA",
"Z. c #BCB8CA",
"A. c #CCB6C5",
"S. c #C2BCCC",
"D. c #C8B5C4",
"F. c #D5B9C5",
"G. c #DABDC6",
"H. c #DCBEC9",
"J. c #D2BFCD",
"K. c #CDC9C8",
"L. c #CEC3C9",
"P. c #DBC4C4",
"I. c #DBC4CB",
"U. c #DCCCCC",
"Y. c #D6D3D2",
"T. c #E2C6C6",
"R. c #E3C2CA",
"E. c #ECC5CB",
"W. c #E5CECB",
"Q. c #EDC9CD",
"!. c #F4CCCE",
"~. c #F8CFCE",
"^. c #E4CBD3",
"/. c #EDC8D0",
"(. c #F4CFD1",
"). c #EAD5D5",
"_. c #E4DBDA",
"`. c #ECDBDA",
"'. c #F4D4D5",
"]. c #FBD5D4",
"[. c #FCD8D6",
"{. c #FBDBDA",
"}. c #F5DBDD",
"|. c #FDE4C2",
" X c #F7E0C0",
".X c #F8E0DE",
"XX c #F7E0DE",
"oX c #E9DFE2",
"OX c #EBE4E3",
"+X c #F2E3E3",
"@X c #FAE4E3",
"#X c #FBEAE7",
"$X c #FBECEB",
"%X c #FBF1EE",
"&X c #FAF4F2",
"*X c #FBF9F8",
"=X c None",
/* pixels */
"=X=X=X=X=X=X=X=X=X=X=X=X#X#X$X$X&X#X#X@X=X=X=X=X=X=X=X=X=X=X=X=X",
"=X=X=X=X=X=X=X=X=XJ.J.^.+XU.h.e.5.<.3.t.A.W.=X=X=X=X=X=X=X=X=X=X",
"=X=X=X=X=X=X=X=X/.I.2.U C 5 , 5 7 4 4 , , 8 U 6.=X=X=X=X=X=X=X=X",
"=X=X=X=X=X=XC.S.2.7 5 6 > 8 D A 7 C s 5 , , 4 7 3.$X=X=X=X=X=X=X",
"=X=X=X=X=XS.C.-.& 6 @ 3 6 H A C C & > 7 5 s 4 , s h.%X=X=X=X=X=X",
"=X=X=X=XZ.N.R O 3 o 2 % 9 9 D O o 0 s 7 0 4 % 5 - H `.%X=X=X=X=X",
"=X=X=XL.q.W o @ X 2 > o 6 6   < H A 8 1 $ o Z 5 , , 1.$X%X=X=X=X",
"=X=X=Xi.q.w o . < %   2 < . 2 Q f % o o X 5 A 7 , , d T..X=X=X=X",
"=X=X*X7.2.S . @ @ . < 3   2 ! % X o   o 1 A 5 8 , s , <.'.E.=X=X",
"=X_.K.OX^ F O @ O . 2   @ g X X O X o 4 C d 6 > > C 5 H E.E.=X=X",
"=X*X&XOX<.O + . . 3   . >   O O   O 8 f 6 1 6 % 5 d 8 J g.R.E.=X",
"=X*X*Xt.e.o o     @ . o X $ $ O @ s s 4 > 1 @ O 8 C s C i.R.R.=X",
"}.$X$XL.1.O     O   X - , r - i S 7 > % 7 c O O 7 G 0 8 h.^./.=X",
"@X#X@X).<.K     o   t 5 b v v ! s a 7 v Y ] ; O f d 5 0 k.'.^.I.",
".X@X{..XW r.2   o & l n m c P a v M [ ] m.} r o e d % G Y.%X^.H.",
"%X#X@X].Q g.D 9 o # 0.I u ( m ` ( _ m o. .4.; O 6 3 % | Y.*X*X+X",
"%X{.E.k.g.n.D F   * &.X.} (  .9.&.` 8...} 1.p < 5 . A e.`.@X$X%X",
"].E.E.g.k.~.3.|   X v.m.d.%.&.|. Xk.| T C 5.z 5 < 2 5.r.#X&X@X}.",
"!.E.E.k.k.].P.U.  # O.|.n.f.d.|.|.|.m.d...P & P @ | R.I.'.&X%X%X",
"E.E.E.!.k.].{.OX<   ` M.M.$.c.|.|.M.x.4.z , C , I w.}.$XXX{.$X=X",
"=XE.E.(.!.!.{.e.p.  + &.|.f.|.|.b.9.] p : o & | >.>.E.(.'.'.&X=X",
"=X@X}.(.~.!.W.%X,.3 X z b.n.l. X|.z.+.&.h , , ;.*.>.R.R.Q.'.@X=X",
"=X=X.X$X$X]..Xj.Q Q 3 ,.x f.#.c.|.z.]  .z $ E -.;.G.R.R.E.].=X=X",
"=X=X].{.%X{.'.P.`.K K.K 6 T v.8.P r m T > @ | F.D.G.R.E.(.].=X=X",
"=X=X=X{.#X].].].l.p.oX/ n M k t : + 3 9 3 S | A.D.A.G.R.Q.=X=X=X",
"=X=X=X$X&X].].{.#X`.K._.l X * # . : V 9 e L q.B.B.h.F.G.E.=X=X=X",
"=X=X=X=X$X].].].[..X@X'.0.X + t y k n l q R u.B.V.B.H.F.=X=X=X=X",
"=X=X=X=X=X{.[.[.{.{.[.].W.# . t * B N q q q u.V.y.V.B.=X=X=X=X=X",
"=X=X=X=X=X=X].Q.{.{.].].n.* . t + V B q q q W B.u.u.=X=X=X=X=X=X",
"=X=X=X=X=X=X=X=X].{.].).q *   t 3 w l q q q q / =X=X=X=X=X=X=X=X",
"=X=X=X=X=X=X=X=X=X=XU.w   * . t q q q q q q =X=X=X=X=X=X=X=X=X=X",
"=X=X=X=X=X=X=X=X=X=X=X=X=X# X h 2 9 2 =X=X=X=X=X=X=X=X=X=X=X=X=X"
};
