/* XPM */
static char *result[] = {
/* columns rows colors chars-per-pixel */
"16 16 207 2 ",
"   c #0E0F0E",
".  c #111010",
"X  c #131111",
"o  c #131211",
"O  c #141111",
"+  c #161313",
"@  c #161411",
"#  c #171414",
"$  c #181715",
"%  c #1B1614",
"&  c #1A1616",
"*  c #1B1616",
"=  c #1D1A12",
"-  c #191817",
";  c #1E1814",
":  c #1E1919",
">  c #1D1A1A",
",  c #221A17",
"<  c #221D1D",
"1  c #231F1F",
"2  c #241D1E",
"3  c #251D1E",
"4  c #261F1F",
"5  c #2B2017",
"6  c #292316",
"7  c #2A2416",
"8  c #2D2717",
"9  c #21201F",
"0  c #2C261A",
"q  c #32251A",
"w  c #3C311B",
"e  c #272222",
"r  c #272323",
"t  c #262424",
"y  c #2F2123",
"u  c #2F2523",
"i  c #2D2324",
"p  c #282424",
"a  c #2E292A",
"s  c #2D2C2B",
"d  c #312023",
"f  c #332622",
"g  c #342326",
"h  c #3F2C24",
"j  c #38272A",
"k  c #31282A",
"l  c #34282A",
"z  c #372A2C",
"x  c #3A2B2D",
"c  c #3A2B2E",
"v  c #392C2E",
"b  c #3D302B",
"n  c #3F3C29",
"m  c #372F30",
"M  c #3B2F30",
"N  c #3C2D30",
"B  c #343131",
"V  c #313334",
"C  c #343536",
"Z  c #3D3032",
"A  c #3F3335",
"S  c #3C3737",
"D  c #3E3738",
"F  c #363839",
"G  c #553B24",
"H  c #403335",
"J  c #423534",
"K  c #413537",
"L  c #4A3835",
"P  c #413738",
"I  c #42393B",
"U  c #443A3C",
"Y  c #493C3E",
"T  c #50451F",
"R  c #4C4029",
"E  c #454230",
"W  c #4B4835",
"Q  c #584333",
"!  c #524E33",
"~  c #544638",
"^  c #684B31",
"/  c #674E3C",
"(  c #7F5635",
")  c #423F41",
"_  c #493E40",
"`  c #414144",
"'  c #554749",
"]  c #5E4F4A",
"[  c #594B4F",
"{  c #5C4D4F",
"}  c #5B514A",
"|  c #5C4554",
" . c #5B5655",
".. c #5E5D5C",
"X. c #775540",
"o. c #645557",
"O. c #796551",
"+. c #736259",
"@. c #666161",
"#. c #6D6265",
"$. c #6C6468",
"%. c #716766",
"&. c #746960",
"*. c #6E6873",
"=. c #746C76",
"-. c #767473",
";. c #7A7271",
":. c #787178",
">. c #886E50",
",. c #957257",
"<. c #917661",
"1. c #817770",
"2. c #8C7F77",
"3. c #9D8E74",
"4. c #A8856A",
"5. c #906B9D",
"6. c #8B8383",
"7. c #99818A",
"8. c #968888",
"9. c #978889",
"0. c #B49D84",
"q. c #A49098",
"w. c #AE9C9D",
"e. c #AD9AA8",
"r. c #B2A1BC",
"t. c #B5A6BE",
"y. c #BFA3BC",
"u. c #CEAB88",
"i. c #CEAD8C",
"p. c #CDB190",
"a. c #CFB190",
"s. c #D0B495",
"d. c #CEB9A1",
"f. c #C1B2BE",
"g. c #C6B8B8",
"h. c #C7B9B9",
"j. c #C3BCBB",
"k. c #CBBFBF",
"l. c #D1B4BC",
"z. c #DDBABD",
"x. c #DEBDBF",
"c. c #E5C19B",
"v. c #DDC7AC",
"b. c #EACFAD",
"n. c #EAD0AE",
"m. c #F0DABC",
"M. c #B7A8C0",
"N. c #BCB9CC",
"B. c #C5B3C3",
"V. c #C6BCCD",
"C. c #D0B6C5",
"Z. c #DBBDC6",
"A. c #DEC4C9",
"S. c #D4CECF",
"D. c #DDC8C8",
"F. c #D8CCCB",
"G. c #DCCECC",
"H. c #E5C3C3",
"J. c #E7C6C6",
"K. c #E3C2CA",
"L. c #E5C2CA",
"P. c #E4C6CD",
"I. c #E9C4C8",
"U. c #EDC5CB",
"Y. c #E9C6CD",
"T. c #E1CECF",
"R. c #E7CDCD",
"E. c #EDC8CE",
"W. c #F0C9CD",
"Q. c #F6CDCE",
"!. c #E0CBD5",
"~. c #F3CFD2",
"^. c #F4CFD1",
"/. c #E6D4D3",
"(. c #EBD3D5",
"). c #EFD1D5",
"_. c #E3DDDD",
"`. c #EBDCDA",
"'. c #EBDBDF",
"]. c #EEDDDC",
"[. c #F3D0D3",
"{. c #F7D5D4",
"}. c #FED7D5",
"|. c #FCD7D7",
" X c #FBD8D7",
".X c #F7DADA",
"XX c #F9DAD9",
"oX c #FCDCDA",
"OX c #FADDDC",
"+X c #FCDEDD",
"@X c #FCDFDE",
"#X c #FEE4C1",
"$X c #FCE1DF",
"%X c #E8E5E2",
"&X c #F7E0E0",
"*X c #F7E6E6",
"=X c #FAE1E0",
"-X c #FAE3E1",
";X c #F8E3E2",
":X c #FAE6E5",
">X c #FAE7E6",
",X c #F6E9E6",
"<X c #FAEAE7",
"1X c #FCEBE9",
"2X c #FBEFEB",
"3X c #FBF7F7",
"4X c None",
/* pixels */
"4X4X4X4X4X!.].F.g.h.D.4X4X4X4X4X",
"4X4X4XV.q.[ v H N j g { k.4X4X4X",
"4X4XN.*.4 r S D k z c y o.,X4X4X",
"4Xf.:.# 1 > t B I 2 : K d w.;X4X",
"4XS.$.- + 9 p a O * P l x ' E.4X",
"3X_. .o - . & % < Z i 3 A Y l.K.",
":X`.@.  X q G Q L h / , U M A.P.",
">XOX9.s ; +.^ X.( ,.0.5 m _ %X'.",
".Xz.x.%.@ s.4.u.i.2.1.b e 8.*X<X",
"U.I.J./.$ p.c.n.#Xd.] J #.(.&X2X",
").~.Q.T...~ b.m.v.<.f | 5.Y.[.1X",
"4X$X-XR.6.-.O.a.3.>.u 7.y.L.^.4X",
"4X@X=X|.G.j.R w 6 E ) e.B.Z.W.4X",
"4X4X+X}.oXXX&.8 T ! ` t.M.C.4X4X",
"4X4X4XH. X{.} 7 n W F =.r.4X4X4X",
"4X4X4X4X4X;.= 0 V C F 4X4X4X4X4X"
};
